<svg class="tram-one-logo" xmlns="http://www.w3.org/2000/svg" width="864" height="864" xml:space="preserve"><g class="tram-logo"><g class="tram-roof" fill="#91BFC8"><path class="top-roof" d="M33.831 324.593s210.14-184.536 469.248-149.148C784.743 221.83 844.85 421.393 844.85 421.393S926.275 126.99 515.643 34.074c-150.393-26.48-277.24-3.3-277.24-3.3l-6.15 33.299-4.357 23.593C60.932 191.022 33.831 324.593 33.831 324.593z"/></g><path d="M68.986 317.261s250.053-200.011 522.052-103.71c171.766 59.762 297.536 223.728 246.893 405.743-38.849 137.041-175.092 194.06-175.092 194.06s58.181-169.368-92.475-206.573c-133.868-29.184-196.427 89.848-351.091 102.979S14.999 664.526 14.999 664.526l53.987-347.265z" class="tram-body" fill="#ED1C24"/><g class="tram-windows" fill="#fff"><g class="front-windows"><path class="window-base" d="M135.805 325.284c-16.196 8.707-32.571 18.242-48.59 28.66l-25.317 152.93s19.322 3.707 51.233 6.024l22.674-187.614zM182.519 304.083a836.916 836.916 0 0 0-25.44 12.399l-23.555 197.39a711.497 711.497 0 0 0 60.215.396l25.149-226.17a922.066 922.066 0 0 0-36.369 15.985zM300.711 258.641s-23.921 6.819-59.306 20.454l-27.812 234.171c18.675-1.202 38.461-3.223 58.989-6.394l28.129-248.231z"/></g><g class="side-windows"><path class="window-base" d="m489.579 327.4 5.399-85.387c-27.041-3.011-55.402-3.159-84.668.55l-7.459 93.398c29.569-6.627 57.38-8.86 86.728-8.561zM593.115 266.378c-23.908-9.293-49.885-16.831-77.466-21.473l-5.426 83.519c42.916 3.212 79.646 12.903 79.646 12.903a16667.02 16667.02 0 0 1 3.246-74.949zM612.114 274.324l-2.104 72.596c32.11 9.248 60.3 23.856 60.3 23.856 1.691-32.204 3.31-60.971 3.635-62.113-17.974-12.182-38.752-24.015-61.831-34.339zM744.991 424.933l2.697-47.894a310.803 310.803 0 0 0-16.984-19.207c-9.13-10.826-21.744-22.868-37.292-35.005-.674 19.468-1.896 39.43-3.218 59.115 20.168 11.952 43.06 30.859 54.797 42.991zM767.178 404.066c-.938 14.333-1.979 27.67-3.046 42.13 18.062 21.836 32.996 47.838 41.629 74.076-1.681-36.889-14.215-77.817-38.583-116.206zM401.115 357.171l-8.921 111.692c33.589-11.845 63.314-20.728 90.104-26.861l6.009-94.067c-29.85-.431-58.212 2.214-87.192 9.236zM589.058 362.174c-40.229-11.204-80.204-13.363-80.204-13.363l-5.86 89.564c31.677-5.869 59.089-7.467 84.035-5.217-.251-8.337.762-38.501 2.029-70.984zM607.46 435.842c20.627 3.821 39.752 10.496 58.541 19.775 0 0 1.473-29.499 3.169-62.319-24.952-14.788-59.731-25.164-59.731-25.164l-1.979 67.708zM688.604 405.042c-1.383 20.414-2.688 40.8-3.428 61 12.127 7.153 24.279 15.351 36.772 24.569a181.462 181.462 0 0 1 18.362 16.887l3.036-54.449c-13.863-16.174-32.374-33.32-54.742-48.007zM761.842 477.35a4921.064 4921.064 0 0 0-3.579 52.291c31.272 45.253 34.102 91.492 34.102 91.492 10.531-50.842-1.326-99.904-30.523-143.783z"/></g></g><g class="tram-front-light" fill="#FFF049"><circle class="light-circle" cx="150.458" cy="598.503" r="19.51"/><g class="light-rays"><path d="M123.143 585.741a2.911 2.911 0 0 1-1.72-.563l-9.226-6.75a2.912 2.912 0 0 1-.632-4.078 2.92 2.92 0 0 1 4.078-.632l9.227 6.75a2.914 2.914 0 0 1 .632 4.078 2.92 2.92 0 0 1-2.359 1.195zM113.518 600.918h-11.432a2.918 2.918 0 0 1 0-5.835h11.432a2.917 2.917 0 1 1 0 5.835zM113.922 622.846a2.914 2.914 0 0 1-2.921-2.914c0-.898.415-1.786 1.196-2.357l9.226-6.751a2.918 2.918 0 0 1 3.446 4.713l-9.227 6.749a2.901 2.901 0 0 1-1.72.56z"/></g></g><g class="tram-rails" fill="#91BFC8"><path class="front-rail" d="m249.342 724.253-11.833 115.381s-155.32 18.49-226.147-149.403c106.328 69.522 237.98 34.022 237.98 34.022z"/><g class="front-bars"><path d="m282.313 750.268 125.101-59.522c6.456-3.068.804-12.624-5.615-9.568-41.703 19.84-83.403 39.682-125.104 59.522-6.453 3.068-.802 12.621 5.618 9.568zM296.318 775.793c41.701-19.844 83.401-39.686 125.103-59.525 6.456-3.07.803-12.626-5.617-9.572-41.701 19.843-83.403 39.687-125.103 59.525-6.455 3.07-.802 12.626 5.617 9.572zM283.744 812.783l125.1-59.524c6.457-3.07.805-12.624-5.616-9.569-41.7 19.841-83.399 39.684-125.1 59.523-6.456 3.071-.803 12.625 5.616 9.57z"/></g><path class="back-rail" d="m451.258 644.373-11.094 120.859s54.026-50.597 103.546-12.134l86.37-86.157s-52.76-83.331-178.822-22.568z"/><g class="back-bars"><path d="M634.765 695.594c3.88 7.204 6.165 18.062 7.479 27.191 3.813 26.479-1.688 53.75-10.65 78.616-2.431 6.748 8.298 9.605 10.703 2.928 9.53-26.444 14.568-54.833 10.863-82.899-1.396-10.587-3.699-21.932-8.823-31.452-3.392-6.299-12.96-.679-9.572 5.616zM611.879 721.923c3.689 20.494 1.421 39.965-5.474 59.549-2.384 6.77 8.342 9.634 10.701 2.932 7.57-21.503 9.529-42.915 5.486-65.354-1.267-7.044-11.972-4.114-10.713 2.873zM585.06 740.237c.715 8.61-.301 16.861-2.631 25.163-1.938 6.904 8.77 9.811 10.701 2.93 2.567-9.146 3.814-18.521 3.026-28.012-.59-7.083-11.689-7.203-11.096-.081z"/></g></g></g></svg>